<mxfile>
    <diagram id="3kprJKTUizeKL1AJmphI" name="第 1 页">
        <mxGraphModel dx="1323" dy="737" grid="1" gridSize="10" guides="1" tooltips="1" connect="1" arrows="1" fold="1" page="1" pageScale="1" pageWidth="1169" pageHeight="827" background="none" math="0" shadow="0">
            <root>
                <mxCell id="0"/>
                <mxCell id="22" value="底层" style="" parent="0"/>
                <mxCell id="86" style="edgeStyle=orthogonalEdgeStyle;curved=1;rounded=0;sketch=1;orthogonalLoop=1;jettySize=auto;html=1;exitX=0;exitY=0.5;exitDx=0;exitDy=0;entryX=0;entryY=0.75;entryDx=0;entryDy=0;fontFamily=Comic Sans MS;fontSize=26;fontColor=#4C0099;endSize=24;strokeColor=#0000FF;" edge="1" parent="22" source="75" target="74">
                    <mxGeometry relative="1" as="geometry">
                        <Array as="points">
                            <mxPoint x="440" y="775"/>
                            <mxPoint x="440" y="972"/>
                        </Array>
                    </mxGeometry>
                </mxCell>
                <mxCell id="42" style="edgeStyle=orthogonalEdgeStyle;curved=1;rounded=0;sketch=1;orthogonalLoop=1;jettySize=auto;html=1;entryX=0.5;entryY=0;entryDx=0;entryDy=0;fontFamily=Comic Sans MS;fontSize=16;startArrow=diamond;startFill=1;" parent="22" source="5" target="28" edge="1">
                    <mxGeometry relative="1" as="geometry"/>
                </mxCell>
                <mxCell id="45" style="edgeStyle=orthogonalEdgeStyle;curved=1;rounded=0;sketch=1;orthogonalLoop=1;jettySize=auto;html=1;exitX=0.5;exitY=1;exitDx=0;exitDy=0;entryX=0.5;entryY=0;entryDx=0;entryDy=0;fontFamily=Comic Sans MS;fontSize=16;" parent="22" source="2" target="34" edge="1">
                    <mxGeometry relative="1" as="geometry"/>
                </mxCell>
                <mxCell id="46" style="edgeStyle=orthogonalEdgeStyle;curved=1;rounded=0;sketch=1;orthogonalLoop=1;jettySize=auto;html=1;exitX=0.5;exitY=1;exitDx=0;exitDy=0;entryX=0.5;entryY=0;entryDx=0;entryDy=0;fontFamily=Comic Sans MS;fontSize=16;" parent="22" source="34" target="36" edge="1">
                    <mxGeometry relative="1" as="geometry"/>
                </mxCell>
                <mxCell id="52" value="&amp;nbsp;Visualization" style="whiteSpace=wrap;html=1;strokeWidth=2;fillWeight=4;hachureGap=8;hachureAngle=45;fillColor=#d5e8d4;strokeColor=#82b366;fontFamily=Comic Sans MS;fontSize=21;sketch=1;rounded=1;" parent="22" vertex="1">
                    <mxGeometry x="840" y="120" width="160" height="40" as="geometry"/>
                </mxCell>
                <mxCell id="57" value="indexedDB" style="whiteSpace=wrap;html=1;strokeWidth=2;fillWeight=4;hachureGap=8;hachureAngle=45;fillColor=#dae8fc;strokeColor=#6c8ebf;fontFamily=Comic Sans MS;fontSize=21;sketch=1;rounded=1;" parent="22" vertex="1">
                    <mxGeometry x="700" y="440" width="160" height="40" as="geometry"/>
                </mxCell>
                <mxCell id="59" value="Online Database" style="whiteSpace=wrap;html=1;strokeWidth=2;fillWeight=4;hachureGap=8;hachureAngle=45;fillColor=#dae8fc;strokeColor=#6c8ebf;fontFamily=Comic Sans MS;fontSize=21;sketch=1;rounded=1;" parent="22" vertex="1">
                    <mxGeometry x="675" y="520" width="190" height="40" as="geometry"/>
                </mxCell>
                <mxCell id="63" style="edgeStyle=orthogonalEdgeStyle;curved=1;rounded=0;sketch=1;orthogonalLoop=1;jettySize=auto;html=1;exitX=0.5;exitY=1;exitDx=0;exitDy=0;entryX=0;entryY=0.75;entryDx=0;entryDy=0;fontFamily=Comic Sans MS;fontSize=16;" parent="22" source="9" target="57" edge="1">
                    <mxGeometry relative="1" as="geometry"/>
                </mxCell>
                <mxCell id="64" style="edgeStyle=orthogonalEdgeStyle;curved=1;rounded=0;sketch=1;orthogonalLoop=1;jettySize=auto;html=1;entryX=0;entryY=0.5;entryDx=0;entryDy=0;fontFamily=Comic Sans MS;fontSize=16;" parent="22" source="9" target="59" edge="1">
                    <mxGeometry relative="1" as="geometry"/>
                </mxCell>
                <mxCell id="66" style="edgeStyle=orthogonalEdgeStyle;rounded=0;orthogonalLoop=1;jettySize=auto;html=1;sketch=1;endArrow=block;endFill=1;startArrow=block;startFill=1;curved=1;" parent="22" source="5" target="10" edge="1">
                    <mxGeometry relative="1" as="geometry">
                        <Array as="points">
                            <mxPoint x="790" y="150"/>
                            <mxPoint x="790" y="70"/>
                        </Array>
                    </mxGeometry>
                </mxCell>
                <mxCell id="67" style="edgeStyle=orthogonalEdgeStyle;rounded=0;orthogonalLoop=1;jettySize=auto;html=1;entryX=0;entryY=0.75;entryDx=0;entryDy=0;sketch=1;endArrow=block;endFill=1;startArrow=block;startFill=1;curved=1;" parent="22" source="5" target="52" edge="1">
                    <mxGeometry relative="1" as="geometry"/>
                </mxCell>
                <mxCell id="68" style="edgeStyle=orthogonalEdgeStyle;rounded=0;orthogonalLoop=1;jettySize=auto;html=1;exitX=0.5;exitY=1;exitDx=0;exitDy=0;sketch=1;endArrow=block;endFill=1;startArrow=block;startFill=1;curved=1;" parent="22" source="5" target="9" edge="1">
                    <mxGeometry relative="1" as="geometry"/>
                </mxCell>
                <mxCell id="69" value="Online Server" style="whiteSpace=wrap;html=1;strokeWidth=2;fillWeight=4;hachureGap=8;hachureAngle=45;fillColor=#d5e8d4;strokeColor=#82b366;fontFamily=Comic Sans MS;fontSize=21;sketch=1;rounded=1;" parent="22" vertex="1">
                    <mxGeometry x="840" y="200" width="160" height="40" as="geometry"/>
                </mxCell>
                <mxCell id="70" style="edgeStyle=orthogonalEdgeStyle;rounded=0;orthogonalLoop=1;jettySize=auto;html=1;entryX=0;entryY=0.5;entryDx=0;entryDy=0;sketch=1;curved=1;startArrow=classic;startFill=0;" parent="22" source="5" target="69" edge="1">
                    <mxGeometry relative="1" as="geometry"/>
                </mxCell>
                <mxCell id="82" style="edgeStyle=orthogonalEdgeStyle;curved=1;rounded=0;sketch=1;orthogonalLoop=1;jettySize=auto;html=1;entryX=1;entryY=0.5;entryDx=0;entryDy=0;endSize=24;fontFamily=Comic Sans MS;exitX=1;exitY=0.5;exitDx=0;exitDy=0;fontColor=#0000FF;strokeColor=#3700CC;fillColor=#6a00ff;" edge="1" parent="22" source="74" target="75">
                    <mxGeometry relative="1" as="geometry">
                        <Array as="points">
                            <mxPoint x="930" y="925"/>
                            <mxPoint x="930" y="775"/>
                        </Array>
                    </mxGeometry>
                </mxCell>
                <mxCell id="83" value="Subscription Callback" style="edgeLabel;html=1;align=center;verticalAlign=middle;resizable=0;points=[];fontFamily=Comic Sans MS;fontSize=20;fontStyle=1;fontColor=#0000E0;" vertex="1" connectable="0" parent="82">
                    <mxGeometry x="0.4619" y="11" relative="1" as="geometry">
                        <mxPoint x="40" y="34" as="offset"/>
                    </mxGeometry>
                </mxCell>
                <mxCell id="85" value="Emit Event, pass Data to init Flow" style="edgeLabel;align=center;verticalAlign=middle;resizable=0;points=[];fontFamily=Comic Sans MS;fontSize=20;fontStyle=1;labelBackgroundColor=#ffffff;html=1;labelBorderColor=none;fontColor=#4D9900;" vertex="1" connectable="0" parent="82">
                    <mxGeometry x="0.4619" y="11" relative="1" as="geometry">
                        <mxPoint x="-438" y="64" as="offset"/>
                    </mxGeometry>
                </mxCell>
                <mxCell id="74" value="Rxjs Data Flow" style="whiteSpace=wrap;html=1;strokeWidth=2;fillWeight=4;hachureGap=8;hachureAngle=45;fillColor=#e1d5e7;fontFamily=Comic Sans MS;fontSize=26;sketch=1;rounded=1;fontStyle=1;strokeColor=#E9D0F2;fontColor=#4D9900;" vertex="1" parent="22">
                    <mxGeometry x="545" y="920" width="360" height="70" as="geometry"/>
                </mxCell>
                <mxCell id="75" value="EventHub" style="whiteSpace=wrap;html=1;strokeWidth=2;fillWeight=4;hachureGap=8;hachureAngle=45;fillColor=#e3c800;strokeColor=#B09500;fontFamily=Comic Sans MS;fontSize=21;sketch=1;rounded=1;fontStyle=1;fontColor=#4C0099;" vertex="1" parent="22">
                    <mxGeometry x="640" y="740" width="170" height="70" as="geometry"/>
                </mxCell>
                <mxCell id="87" style="edgeStyle=orthogonalEdgeStyle;curved=1;rounded=0;sketch=1;orthogonalLoop=1;jettySize=auto;html=1;entryX=0.5;entryY=1;entryDx=0;entryDy=0;fontFamily=Comic Sans MS;fontSize=26;fontColor=#4C0099;endSize=24;strokeColor=#0000FF;" edge="1" parent="22" source="36" target="28">
                    <mxGeometry relative="1" as="geometry"/>
                </mxCell>
                <mxCell id="88" style="edgeStyle=orthogonalEdgeStyle;rounded=0;sketch=1;orthogonalLoop=1;jettySize=auto;html=1;exitX=0.272;exitY=0;exitDx=0;exitDy=0;entryX=1;entryY=0.5;entryDx=0;entryDy=0;fontFamily=Comic Sans MS;fontSize=26;fontColor=#4C0099;endSize=24;strokeColor=#0000FF;elbow=vertical;curved=1;exitPerimeter=0;" edge="1" parent="22" source="28" target="2">
                    <mxGeometry relative="1" as="geometry">
                        <Array as="points">
                            <mxPoint x="355" y="210"/>
                        </Array>
                    </mxGeometry>
                </mxCell>
                <mxCell id="1" parent="0"/>
                <mxCell id="2" value="Request" style="whiteSpace=wrap;html=1;strokeWidth=1;fillWeight=4;hachureGap=8;hachureAngle=45;fillColor=#ffe6cc;strokeColor=#d79b00;fontFamily=Comic Sans MS;fontSize=16;sketch=1;rounded=1;fontStyle=1" parent="1" vertex="1">
                    <mxGeometry x="90" y="190" width="120" height="40" as="geometry"/>
                </mxCell>
                <mxCell id="5" value="ControlPanel" style="whiteSpace=wrap;html=1;strokeWidth=2;fillWeight=4;hachureGap=8;hachureAngle=45;fillColor=#ffe6cc;strokeColor=#d79b00;fontFamily=Comic Sans MS;fontSize=21;sketch=1;rounded=1;" parent="1" vertex="1">
                    <mxGeometry x="540" y="120" width="150" height="60" as="geometry"/>
                </mxCell>
                <mxCell id="9" value="Memory" style="ellipse;whiteSpace=wrap;html=1;strokeWidth=2;fillWeight=2;hachureGap=8;fillColor=#dae8fc;fillStyle=dots;strokeColor=#6c8ebf;fontFamily=Comic Sans MS;fontSize=21;sketch=1;rounded=1;" parent="1" vertex="1">
                    <mxGeometry x="555" y="340" width="120" height="60" as="geometry"/>
                </mxCell>
                <mxCell id="10" value="Console" style="whiteSpace=wrap;html=1;strokeWidth=2;fillWeight=4;hachureGap=8;hachureAngle=45;fillColor=#d5e8d4;strokeColor=#82b366;fontFamily=Comic Sans MS;fontSize=21;sketch=1;rounded=1;" parent="1" vertex="1">
                    <mxGeometry x="860" y="50" width="110" height="40" as="geometry"/>
                </mxCell>
                <mxCell id="28" value="EventHub" style="ellipse;whiteSpace=wrap;html=1;strokeWidth=1;fillWeight=2;hachureGap=8;fillColor=#d5e8d4;fillStyle=dots;strokeColor=#82b366;fontFamily=Comic Sans MS;fontSize=14;sketch=1;rounded=1;fontStyle=1;" parent="1" vertex="1">
                    <mxGeometry x="330" y="269" width="90" height="40" as="geometry"/>
                </mxCell>
                <UserObject label="Pipeline" placeholders="1" name="Variable" id="33">
                    <mxCell style="text;html=1;strokeColor=none;fillColor=none;align=center;verticalAlign=middle;whiteSpace=wrap;overflow=hidden;rounded=0;dashed=1;sketch=1;fontFamily=Comic Sans MS;fontSize=20;fontStyle=1" parent="1" vertex="1">
                        <mxGeometry x="90" y="130" width="115" height="50" as="geometry"/>
                    </mxCell>
                </UserObject>
                <mxCell id="34" value="ExcelHelper" style="whiteSpace=wrap;html=1;strokeWidth=1;fillWeight=4;hachureGap=8;hachureAngle=45;fillColor=#ffe6cc;strokeColor=#d79b00;fontFamily=Comic Sans MS;fontSize=16;sketch=1;rounded=1;fontStyle=1" parent="1" vertex="1">
                    <mxGeometry x="90" y="270" width="120" height="40" as="geometry"/>
                </mxCell>
                <mxCell id="36" value="Other Plugins" style="whiteSpace=wrap;html=1;strokeWidth=1;fillWeight=4;hachureGap=8;hachureAngle=45;fillColor=#ffe6cc;strokeColor=#d79b00;fontFamily=Comic Sans MS;fontSize=16;sketch=1;rounded=1;fontStyle=1" parent="1" vertex="1">
                    <mxGeometry x="90" y="350" width="120" height="40" as="geometry"/>
                </mxCell>
            </root>
        </mxGraphModel>
    </diagram>
</mxfile>
